<svg width="24" height="24" viewBox="0 0 24 24" fill="none" xmlns="http://www.w3.org/2000/svg">
<path d="M15.8534 20.6719C14.6631 21.1691 13.3673 21.4554 11.9962 21.4554C9.60058 21.4554 7.41587 20.5965 5.69824 19.1953C5.69824 19.1953 5.83384 19.2857 5.92425 19.3611C7.82268 15.2327 13.6837 13.1836 13.6837 13.1836C13.6988 13.1836 13.7289 13.1685 13.744 13.1685C15.1302 16.7846 15.7027 19.798 15.8534 20.6719ZM13.066 11.5262C12.9454 11.5714 12.8098 11.6016 12.6742 11.6468C12.6742 11.6468 7.34054 13.3644 4.64355 18.1708C3.07659 16.423 2.1123 14.1027 2.1123 11.5714C2.1123 11.466 2.1123 11.3605 2.12737 11.255C2.29311 11.255 7.1748 11.3756 12.2674 9.8538C12.5537 10.4113 12.8249 10.9688 13.066 11.5262ZM11.4538 8.33203C6.70773 9.58259 2.57938 9.53739 2.32324 9.53739C2.97112 6.4788 5.02023 3.93248 7.77748 2.63672C7.91308 2.81752 9.73619 5.28851 11.4538 8.33203ZM21.7596 13.1384C21.3076 15.8956 19.7406 18.2762 17.5258 19.7679C17.4203 19.1803 16.893 16.2723 15.5972 12.7015C18.7914 12.2042 21.5487 13.0781 21.7596 13.1384ZM9.63072 1.97377C9.61565 1.97377 9.60058 1.98884 9.60058 1.98884C9.61565 1.97377 9.61565 1.97377 9.63072 1.97377ZM18.5202 4.15848C18.4901 4.20368 17.0889 6.34319 13.3673 7.72935C11.6798 4.62556 9.81152 2.16964 9.66085 1.97377C10.4142 1.79297 11.1977 1.6875 11.9962 1.6875C14.4973 1.6875 16.7875 2.62165 18.5202 4.15848ZM21.8802 11.466C21.7596 11.4509 18.3997 10.7126 14.9946 11.1496C14.9192 10.9838 14.859 10.803 14.7836 10.6373C14.5727 10.1551 14.3467 9.67299 14.1207 9.20592C18.023 7.60882 19.605 5.31864 19.6352 5.28851C21.0213 6.97601 21.85 9.13058 21.8802 11.466ZM23.5677 11.5714C23.5677 5.18304 18.3846 0 11.9962 0C5.60784 0 0.424805 5.18304 0.424805 11.5714C0.424805 17.9598 5.60784 23.1429 11.9962 23.1429C18.3846 23.1429 23.5677 17.9598 23.5677 11.5714Z" fill="#EBE4D6"/>
</svg>
