<svg width="24" height="24" viewBox="0 0 24 24" fill="none" xmlns="http://www.w3.org/2000/svg">
<path fill-rule="evenodd" clip-rule="evenodd" d="M12.2553 0C18.8936 0 24 5.10638 24 11.7447C24 18.383 18.8936 24 12.2553 24C5.61702 24 0 18.383 0 11.7447C0 5.10638 5.61702 0 12.2553 0ZM4.08511 6.6383V17.3617H19.9149V6.6383H4.08511ZM6.12766 15.8298L11.234 12.766L12.2553 13.2766L13.2766 12.766L18.383 15.8298H6.12766ZM18.8936 15.3191L14.2979 12.2553L18.8936 9.19149V15.3191ZM18.8936 7.65957L12.2553 12.2553L5.61702 7.65957H18.8936ZM5.61702 9.19149L10.2128 12.2553L5.61702 15.3191V9.19149Z" fill="#F2994A"/>
</svg>
