<svg width="34" height="34" viewBox="0 0 34 34" fill="none" xmlns="http://www.w3.org/2000/svg">
<path d="M5.89487 1.90843L5.32538 2.47792V10.4508C4.75588 11.0203 4.18639 10.4508 4.18639 10.4508V2.47792C4.18639 2.47792 4.18639 1.90843 3.6169 1.90843L3.04741 2.47792V10.4508C2.47792 11.0203 1.90843 10.4508 1.90843 10.4508V2.47792C1.90843 2.47792 1.90843 1.90843 1.33893 1.90843L0.769443 2.47792V11.0203C0.769443 12.1593 1.33893 12.7288 2.47792 13.2983V32.661C2.47792 33.2305 3.04741 33.8 3.6169 33.8C4.18639 33.8 4.75588 33.2305 4.75588 32.661V13.2983C5.89487 12.7288 6.46436 12.1593 6.46436 11.0203V2.47792C6.46436 2.47792 6.46436 1.90843 5.89487 1.90843ZM1.33893 14.4372C1.33893 13.8677 0.769443 13.8677 0.199951 13.2983C0.199951 14.4372 0.199951 16.1457 0.199951 17.2847C0.199951 19.5627 0.769443 21.8406 1.33893 24.1186V14.4372ZM29.244 1.90843C30.383 1.90843 30.383 4.18639 30.383 5.32538L30.9525 16.1457C30.9525 17.2847 30.383 17.8542 29.244 18.4237V32.661C29.244 33.2305 28.6745 33.8 28.105 33.8C27.5355 33.8 26.9661 33.2305 26.9661 32.661V16.1457V13.2983V4.18639C26.9661 1.90843 28.105 1.90843 29.244 1.90843ZM31.522 9.31182L32.0915 16.7152C32.0915 18.4237 30.383 19.5627 30.383 19.5627V27.5355C32.661 24.6881 33.8 21.2711 33.8 17.2847C33.8 14.4372 32.661 11.5898 31.522 9.31182ZM16.7152 0.199951C13.2983 0.199951 10.4508 1.33893 8.17283 3.04741V10.4508V11.0203C7.60334 12.1593 7.03385 13.2983 5.89487 14.4372V30.383C8.74232 32.661 12.7288 33.8 16.7152 33.8C20.1322 33.8 23.5491 33.2305 26.3966 31.522V3.04741C23.5491 1.33893 20.1322 0.199951 16.7152 0.199951ZM16.7152 25.8271C12.1593 25.8271 8.17283 21.8406 8.17283 17.2847C8.17283 12.1593 12.1593 8.74232 16.7152 8.74232C21.8406 8.74232 25.8271 12.1593 25.8271 17.2847C25.8271 21.8406 21.8406 25.8271 16.7152 25.8271Z" fill="#F2994A"/>
</svg>
