<svg width="36" height="22" viewBox="0 0 36 22" fill="none" xmlns="http://www.w3.org/2000/svg">
<path d="M33.0001 15.8V21.8H36.0001V13.4H3.6001V1.39995C3.6001 0.799951 3.0001 0.199951 2.4001 0.199951C1.2001 0.199951 0.600098 0.799951 0.600098 1.39995V21.8H3.6001V15.8H33.0001ZM36.0001 11V7.39995C36.0001 6.19995 35.4001 5.59995 34.2001 5.59995L13.8001 3.19995C13.8001 3.19995 13.8001 3.19995 13.2001 3.19995C12.6001 3.19995 12.0001 3.79995 12.0001 4.99995V8.59995H6.6001C6.0001 8.59995 5.4001 9.19995 5.4001 9.79995C5.4001 10.4 6.0001 11 6.6001 11H36.0001ZM7.8001 7.39995C9.6001 7.39995 10.8001 6.19995 10.8001 4.39995C10.8001 3.19995 9.6001 1.99995 7.8001 1.99995C6.6001 1.99995 5.4001 3.19995 5.4001 4.39995C5.4001 6.19995 6.6001 7.39995 7.8001 7.39995Z" fill="#F2994A"/>
</svg>
