<svg width="34" height="34" viewBox="0 0 34 34" fill="none" xmlns="http://www.w3.org/2000/svg">
<path d="M16.7633 0.199951H17.2366H17.7098L18.1831 0.673191C18.1831 0.673191 18.1831 0.673191 18.6563 0.673191C19.1295 1.14643 19.1295 1.14643 19.1295 1.14643C19.6028 1.14643 19.6028 1.14643 19.6028 1.14643C20.076 1.61967 20.076 1.61967 20.076 1.61967C20.5492 1.61967 20.5492 1.61967 20.5492 1.61967C20.5492 1.61967 21.0225 1.61967 21.0225 2.09291H21.4957C21.4957 2.09291 21.4957 2.09291 21.969 2.56615H22.4422C22.4422 2.56615 22.4422 2.56615 22.9154 2.56615V3.03939C23.3887 3.03939 23.3887 3.03939 23.3887 3.03939H23.8619C23.8619 3.51263 23.8619 3.51263 23.8619 3.51263C24.3352 3.51263 24.3352 3.51263 24.3352 3.51263C24.8084 3.51263 24.8084 3.51263 24.8084 3.98587H25.2816H25.7549C25.7549 4.45911 26.2281 4.45911 26.2281 4.45911H26.7014C26.7014 4.93235 26.7014 4.93235 26.7014 4.93235C27.1746 4.93235 27.1746 4.93235 27.6478 4.93235C27.6478 5.40559 28.1211 5.40559 28.1211 5.40559C28.5943 5.40559 28.5943 5.40559 28.5943 5.40559C28.5943 5.40559 28.5943 5.87883 29.0676 5.87883C29.5408 5.87883 29.5408 5.87883 29.5408 6.35206C30.014 6.35206 30.014 6.35206 30.014 6.35206C30.4873 6.35206 30.4873 6.35206 30.4873 6.35206C30.4873 6.35206 30.4873 6.8253 30.9605 6.8253C30.9605 6.8253 30.9605 6.8253 31.4338 6.8253C31.4338 6.8253 31.4338 6.8253 31.907 7.29854H32.3802C32.8535 7.77178 32.8535 7.77178 32.8535 7.77178C32.8535 7.77178 32.8535 7.77178 33.3267 7.77178V8.24502C33.8 8.24502 33.8 8.24502 33.8 8.24502C33.8 8.71826 33.8 8.71826 33.8 8.71826V10.6112C33.8 11.0845 33.8 11.0845 33.8 11.0845C33.8 11.5577 33.8 11.5577 33.3267 11.5577V12.0309C32.8535 12.0309 32.8535 12.0309 32.8535 12.0309C32.8535 12.0309 32.8535 12.0309 32.3802 12.0309V12.5042C31.907 12.5042 31.907 12.5042 31.907 12.5042C31.907 12.5042 31.907 12.9774 31.907 13.4507C31.907 13.4507 31.907 13.4507 31.907 13.9239C31.4338 14.3971 31.4338 14.3971 30.9605 14.8704C30.9605 14.8704 30.9605 14.8704 30.4873 14.8704C30.4873 19.6028 30.4873 24.3352 30.4873 29.0676C30.9605 29.0676 31.907 29.0676 32.3802 29.0676C32.3802 29.0676 32.3802 29.0676 32.8535 29.0676C32.8535 29.0676 33.3267 29.0676 33.3267 29.5408C33.3267 29.5408 33.3267 29.5408 33.8 29.5408C33.8 30.014 33.8 30.014 33.8 30.014V30.4873C33.8 31.4338 33.8 31.907 33.8 32.3802V32.8535C33.3267 33.3267 33.3267 33.3267 32.8535 33.3267C32.8535 33.8 32.8535 33.8 32.8535 33.8H1.14643C0.673191 33.3267 0.673191 33.3267 0.673191 32.8535C0.199951 32.8535 0.199951 32.8535 0.199951 32.3802V30.014C0.199951 30.014 0.199951 30.014 0.673191 29.5408C0.673191 29.5408 0.673191 29.0676 1.14643 29.0676H1.61967C2.09291 29.0676 3.03939 29.0676 3.51263 29.0676C3.51263 24.3352 3.51263 19.6028 3.51263 14.8704C3.51263 14.8704 3.51263 14.8704 3.03939 14.8704C3.03939 14.3971 2.56615 14.3971 2.56615 13.9239C2.56615 13.4507 2.56615 13.4507 2.09291 13.4507C2.09291 12.9774 2.09291 12.5042 2.09291 12.5042C2.09291 12.5042 2.09291 12.0309 1.61967 12.0309C1.61967 12.0309 1.61967 12.0309 1.14643 12.0309C0.673191 11.5577 0.673191 11.5577 0.673191 11.5577C0.673191 11.5577 0.673191 11.5577 0.673191 11.0845C0.673191 11.0845 0.673191 11.0845 0.199951 11.0845C0.199951 11.0845 0.199951 11.0845 0.199951 10.6112V8.71826C0.199951 8.71826 0.199951 8.24502 0.673191 8.24502C0.673191 8.24502 0.673191 7.77178 1.14643 7.77178C1.14643 7.77178 1.14643 7.29854 1.61967 7.29854H2.09291C2.09291 7.29854 2.56615 7.29854 2.56615 6.8253C2.56615 6.8253 2.56615 6.8253 3.03939 6.8253C3.03939 6.8253 3.03939 6.8253 3.51263 6.8253C3.51263 6.35206 3.51263 6.35206 3.51263 6.35206C3.51263 6.35206 3.51263 6.35206 3.98587 6.35206C3.98587 6.35206 3.98587 6.35206 4.45911 6.35206V5.87883H4.93235C5.40559 5.87883 5.40559 5.87883 5.40559 5.40559H5.87883C5.87883 5.40559 6.35206 5.40559 6.35206 4.93235C6.8253 4.93235 6.8253 4.93235 6.8253 4.93235C6.8253 4.93235 7.29854 4.93235 7.29854 4.45911C7.29854 4.45911 7.29854 4.45911 7.77178 4.45911C7.77178 4.45911 7.77178 4.45911 8.24502 4.45911C8.24502 4.45911 8.24502 4.45911 8.24502 3.98587H8.71826H9.1915V3.51263C9.66474 3.51263 9.66474 3.51263 9.66474 3.51263H10.138C10.138 3.03939 10.138 3.03939 10.6112 3.03939C11.0845 3.03939 11.0845 3.03939 11.0845 3.03939C11.0845 2.56615 11.5577 2.56615 11.5577 2.56615C11.5577 2.56615 11.5577 2.56615 12.0309 2.56615L12.5042 2.09291C12.9774 2.09291 12.9774 2.09291 12.9774 2.09291C12.9774 2.09291 12.9774 2.09291 13.4507 2.09291C13.4507 1.61967 13.4507 1.61967 13.4507 1.61967H13.9239C14.3971 1.61967 14.3971 1.14643 14.8704 1.14643C15.3436 1.14643 15.3436 0.673191 15.3436 0.673191C15.8169 0.673191 15.8169 0.673191 15.8169 0.673191C15.8169 0.673191 15.8169 0.673191 16.2901 0.673191V0.199951H16.7633ZM3.51263 12.5042C3.51263 12.5042 3.51263 12.9774 3.98587 13.4507C5.87883 13.4507 8.24502 13.4507 10.138 13.4507C10.138 12.9774 10.138 12.5042 10.138 12.5042C8.24502 12.5042 5.87883 12.5042 3.51263 12.5042ZM11.5577 12.5042C11.5577 12.5042 11.5577 12.9774 11.5577 13.4507C11.5577 13.9239 11.5577 13.9239 11.5577 13.9239C11.5577 14.3971 11.0845 14.3971 10.6112 14.8704C10.6112 19.6028 10.6112 24.3352 10.6112 29.0676C11.5577 29.0676 12.5042 29.0676 13.4507 29.0676C13.4507 24.3352 13.4507 19.6028 13.4507 14.8704C13.9239 14.8704 13.4507 14.8704 13.4507 14.8704C12.9774 14.3971 12.5042 14.3971 12.5042 13.9239V13.4507C12.5042 12.9774 12.5042 12.5042 12.5042 12.5042C12.0309 12.5042 12.0309 12.5042 11.5577 12.5042ZM13.9239 12.5042C13.9239 12.5042 13.4507 12.9774 13.9239 13.4507C16.2901 13.4507 18.1831 13.4507 20.076 13.4507H20.5492C20.5492 12.9774 20.5492 12.5042 20.5492 12.5042C18.1831 12.5042 15.8169 12.5042 13.9239 12.5042ZM21.969 12.5042C21.969 12.5042 21.969 12.9774 21.969 13.4507L21.4957 13.9239C21.4957 14.3971 21.0225 14.3971 21.0225 14.8704H20.5492C20.5492 19.6028 20.5492 24.3352 20.5492 29.0676C21.4957 29.0676 22.4422 29.0676 23.8619 29.0676C23.8619 24.3352 23.8619 19.6028 23.8619 14.8704C23.8619 14.8704 23.8619 14.8704 23.3887 14.8704C22.9154 14.3971 22.9154 14.3971 22.9154 13.9239C22.4422 13.9239 22.4422 13.9239 22.4422 13.9239C22.4422 13.9239 22.4422 13.9239 22.4422 13.4507C22.4422 12.9774 22.4422 12.5042 22.4422 12.5042C21.969 12.5042 21.969 12.5042 21.969 12.5042ZM23.8619 12.5042C23.8619 12.5042 23.8619 12.9774 23.8619 13.4507C23.8619 13.4507 23.8619 13.4507 24.3352 13.4507C26.2281 13.4507 28.1211 13.4507 30.014 13.4507H30.4873C30.4873 12.9774 30.4873 12.5042 30.4873 12.5042C28.1211 12.5042 26.2281 12.5042 23.8619 12.5042ZM4.93235 14.8704C4.93235 19.6028 4.93235 24.3352 4.93235 29.0676C6.35206 29.0676 7.77178 29.0676 9.1915 29.0676C9.1915 24.3352 9.1915 19.6028 9.1915 14.8704C7.77178 14.8704 6.35206 14.8704 4.93235 14.8704ZM15.3436 14.8704C15.3436 19.6028 15.3436 24.3352 15.3436 29.0676C16.2901 29.0676 17.7098 29.0676 19.1295 29.0676C19.1295 24.3352 19.1295 19.6028 19.1295 14.8704C17.7098 14.8704 16.2901 14.8704 15.3436 14.8704ZM25.2816 14.8704C25.2816 19.6028 25.2816 24.3352 25.2816 29.0676C26.7014 29.0676 27.6478 29.0676 29.0676 29.0676C29.0676 24.3352 29.0676 19.6028 29.0676 14.8704C27.6478 14.8704 26.7014 14.8704 25.2816 14.8704ZM1.61967 30.4873C1.61967 30.9605 1.61967 31.4338 1.61967 32.3802C1.61967 32.3802 1.61967 32.3802 2.09291 32.3802C12.0309 32.3802 22.4422 32.3802 32.3802 32.3802C32.3802 31.907 32.3802 30.9605 32.3802 30.4873C21.969 30.4873 12.0309 30.4873 1.61967 30.4873Z" fill="#F2994A"/>
</svg>
