<svg width="24" height="25" viewBox="0 0 24 25" fill="none" xmlns="http://www.w3.org/2000/svg">
<path fill-rule="evenodd" clip-rule="evenodd" d="M12.2553 0C18.8936 0 24 5.61702 24 12.2553C24 18.8936 18.8936 24.5106 12.2553 24.5106C5.61702 24.5106 0 18.8936 0 12.2553C0 5.61702 5.61702 0 12.2553 0ZM12.2553 11.234C10.7234 11.234 9.70213 12.2553 9.70213 13.7872C9.70213 14.8085 10.7234 15.8298 12.2553 15.8298C13.2766 15.8298 14.2979 14.8085 14.2979 13.7872C14.2979 12.2553 13.2766 11.234 12.2553 11.234ZM18.8936 18.383V15.8298C18.8936 15.3191 18.8936 14.8085 18.8936 14.2979C18.8936 13.7872 18.383 13.2766 18.383 12.766H20.9362V11.234C20.9362 9.70213 20.4255 8.17021 19.4043 7.65957C18.383 6.6383 16.8511 6.12766 15.3191 6.12766H9.19149C7.65957 6.12766 6.12766 6.6383 5.10638 7.65957C4.08511 8.17021 3.57447 9.70213 3.57447 11.234V12.766H6.12766C6.12766 13.2766 5.61702 13.7872 5.61702 14.2979C5.61702 14.8085 5.10638 15.3191 5.10638 15.8298V18.383H18.8936ZM17.3617 11.7447L16.3404 10.7234V10.2128V9.70213V8.17021H12.766V8.68085C12.766 8.68085 12.766 9.19149 12.2553 9.19149C11.7447 9.19149 11.7447 9.19149 11.7447 8.68085V8.17021H8.17021V9.70213V10.2128C8.17021 10.2128 8.17021 10.7234 7.65957 10.7234L7.14894 11.7447H4.59574V11.234C4.59574 10.2128 5.10638 9.19149 6.12766 8.17021C6.6383 7.65957 7.65957 7.14894 9.19149 7.14894H15.3191C16.3404 7.14894 17.3617 7.65957 18.383 8.17021C18.8936 9.19149 19.4043 10.2128 19.4043 11.234V11.7447H17.3617ZM9.19149 9.70213V9.19149H10.2128H10.7234V9.70213C10.7234 10.2128 11.7447 10.2128 12.2553 10.2128C12.766 10.2128 12.766 10.2128 12.766 10.2128H13.2766C13.2766 10.2128 13.7872 9.70213 13.7872 9.19149H14.8085V9.70213C14.8085 10.2128 14.8085 10.2128 15.3191 10.7234V11.234L16.8511 13.7872C17.3617 13.7872 17.3617 14.2979 17.8723 14.8085C17.8723 14.8085 17.8723 15.3191 17.8723 15.8298V17.3617H6.6383V15.8298C6.6383 15.3191 6.6383 14.8085 6.6383 14.8085C6.6383 14.2979 7.14894 13.7872 7.14894 13.7872L8.68085 11.234C9.19149 11.234 9.19149 10.7234 9.19149 10.7234C9.19149 10.2128 9.19149 10.2128 9.19149 9.70213ZM12.2553 12.766C12.766 12.766 13.2766 13.2766 13.2766 13.7872C13.2766 14.2979 12.766 14.8085 12.2553 14.8085C11.7447 14.8085 11.234 14.2979 11.234 13.7872C11.234 13.2766 11.7447 12.766 12.2553 12.766Z" fill="#F2994A"/>
</svg>
