<svg width="58" height="48" viewBox="0 0 58 48" fill="none" xmlns="http://www.w3.org/2000/svg">
<path fill-rule="evenodd" clip-rule="evenodd" d="M35.3989 42.0122L36.2562 42.2795C36.1278 42.7761 35.9042 43.1453 35.5977 43.3871C35.2912 43.6248 34.9019 43.7479 34.4297 43.7479C33.8458 43.7479 33.3695 43.5399 32.9926 43.1325C32.6157 42.7251 32.4293 42.165 32.4293 41.4563C32.4293 40.7052 32.6157 40.1238 32.9926 39.7079C33.3736 39.292 33.8706 39.0841 34.4836 39.0841C35.022 39.0841 35.461 39.2496 35.7965 39.5763C35.9953 39.7673 36.1444 40.0431 36.2438 40.4081L35.3658 40.6203C35.3161 40.3869 35.2084 40.2044 35.0427 40.0686C34.877 39.9328 34.6782 39.8649 34.4422 39.8649C34.115 39.8649 33.8499 39.9837 33.647 40.2256C33.444 40.4633 33.3405 40.8537 33.3405 41.3884C33.3405 41.957 33.444 42.3644 33.6428 42.6021C33.8416 42.844 34.1025 42.967 34.4215 42.967C34.6575 42.967 34.8605 42.8906 35.0303 42.7379C35.2001 42.5808 35.3243 42.339 35.3989 42.0122ZM0 29.8287H8.03071V38.0571H0V29.8287ZM0 0H8.03071V8.22845H0V0ZM0 9.94289H8.03071V18.1713H0V9.94289ZM0 19.8858H8.03071V28.1142H0V19.8858ZM0 39.7715H8.03071V48H0V39.7715ZM43.6574 43.6672H47.8985V42.9119H47.5133V39.1689H44.4774V39.6442C44.4774 40.4208 44.4484 41.0616 44.3905 41.5709C44.3325 42.0801 44.2124 42.5257 44.0301 42.9119H43.6574V43.6672ZM10.2631 0H58V6.59889C57.8012 6.36973 57.5858 6.14057 57.3622 5.92414C55.4529 4.07815 52.8353 3.15304 49.5013 3.15304C46.4613 3.15304 43.9266 3.95084 41.9013 5.53797C39.8719 7.12934 38.6708 9.75617 38.2856 13.4142L44.7466 14.072C44.8709 12.1326 45.3265 10.7449 46.1217 9.91743C46.9252 9.08142 47.9937 8.6613 49.3439 8.6613C50.7024 8.6613 51.7709 9.05596 52.5413 9.85377C53.3199 10.6516 53.7051 11.7846 53.7051 13.2657C53.7051 14.6109 53.2578 15.9646 52.3715 17.3353C51.7088 18.3241 49.9237 20.2168 47.008 23.0049C43.3923 26.4592 40.9653 29.2303 39.7394 31.3139C38.5134 33.4018 37.7762 35.6085 37.5318 37.9425H58V39.1689H56.1528C55.7138 39.1689 55.3825 39.2029 55.163 39.275C54.9393 39.3472 54.7612 39.4915 54.6287 39.7037C54.492 39.9158 54.4257 40.1577 54.4257 40.4336C54.4257 40.7476 54.5169 41.0192 54.6991 41.2441C54.8772 41.4733 55.1712 41.6175 55.5813 41.6854C55.3949 41.7915 55.2375 41.9188 55.1091 42.0589C54.9849 42.1989 54.8151 42.4451 54.6038 42.793L54.0696 43.6715H55.1298L55.7676 42.6869C56.0451 42.2626 56.2439 42.0037 56.3558 41.9188C56.4717 41.834 56.6705 41.7915 56.9522 41.7915H57.1302V43.6715H58V48H10.2631V38.0571H16.0448V23.5014H17.2625C18.6417 23.5014 19.6522 23.6329 20.2942 23.8918C20.9279 24.1507 21.5284 24.6387 22.0958 25.3346C22.6674 26.0391 23.7235 27.745 25.2642 30.4482L29.5591 38.0571H36.7201L33.1044 31.2588C31.6797 28.5471 30.549 26.6586 29.7041 25.5935C28.8716 24.5326 27.8072 23.5565 26.515 22.6739C29.1118 22.2283 31.0584 21.1546 32.363 19.4529C33.6677 17.747 34.3179 15.5912 34.3179 12.9686C34.3179 10.9104 33.883 9.08142 33.0216 7.47732C32.156 5.87746 31.0087 4.76563 29.5674 4.14181C28.1302 3.51799 25.8233 3.19972 22.655 3.19972H10.2631V0ZM37.8549 43.6715V39.9286H36.5544V39.1689H40.0417V39.9286H38.7454V43.6715H37.8549ZM40.166 39.1689H41.1641L42.1871 41.4987L43.0651 39.1689H43.9887L42.5019 42.5893C42.3403 42.9628 42.1788 43.2429 42.009 43.4381C41.8433 43.629 41.6238 43.7266 41.3588 43.7266C41.0978 43.7266 40.8949 43.7097 40.7458 43.6757V42.9967C40.87 43.0052 40.986 43.0095 41.0854 43.0095C41.2925 43.0095 41.4374 42.9713 41.5286 42.8949C41.6155 42.8185 41.7025 42.653 41.7812 42.3941L40.166 39.1689ZM45.3265 39.9286C45.3265 41.2908 45.2022 42.2838 44.9579 42.9119H46.6228V39.9286H45.3265ZM48.5197 39.1689H49.4102V40.9683H50.5947C50.9053 40.9683 51.1745 41.0107 51.3982 41.0956C51.6218 41.1847 51.8123 41.3375 51.9614 41.5624C52.1105 41.7873 52.1851 42.0462 52.1851 42.339C52.1851 42.6445 52.1064 42.9034 51.9532 43.124C51.7958 43.3447 51.6218 43.4932 51.4313 43.5611C51.2408 43.6333 50.9592 43.6715 50.5947 43.6715H48.5197V39.1689ZM49.4102 42.9119H50.2758C50.5491 42.9119 50.7438 42.8949 50.8515 42.8694C50.9592 42.8397 51.0586 42.7803 51.1414 42.6827C51.2284 42.5851 51.2698 42.4663 51.2698 42.3262C51.2698 42.1268 51.1994 41.974 51.0627 41.8764C50.9219 41.7746 50.6734 41.7279 50.3131 41.7279H49.4102V42.9119ZM52.6945 39.1689H53.585V43.6715H52.6945V39.1689ZM57.1302 39.9286H56.4386C56.0865 39.9286 55.8546 39.937 55.7469 39.954C55.6351 39.971 55.5398 40.0262 55.4612 40.1195C55.3783 40.2129 55.341 40.336 55.341 40.4887C55.341 40.6457 55.3783 40.7731 55.457 40.8664C55.5316 40.9598 55.631 41.0149 55.7511 41.0404C55.867 41.0616 56.1114 41.0744 56.4759 41.0744H57.1302V39.9286ZM58 19.9919V31.8062H47.3393C47.679 31.2121 48.118 30.5883 48.6688 29.9602C49.2114 29.3279 50.5077 28.0548 52.5578 26.1282C54.6038 24.2058 56.0244 22.729 56.8031 21.6978C57.2462 21.1207 57.648 20.552 58 19.9919ZM16.0448 17.9507H20.4806C23.3508 17.9507 25.14 17.8064 25.8606 17.5221C26.5688 17.2377 27.1362 16.7412 27.538 16.0453C27.9439 15.3451 28.1427 14.4709 28.1427 13.4227C28.1427 12.2472 27.8735 11.3051 27.3433 10.5752C26.8132 9.85377 26.0594 9.3997 25.0944 9.21298C24.6015 9.13235 23.1437 9.08991 20.7208 9.08991H16.0448V17.9507Z" fill="#EBE4D6"/>
</svg>
