<svg width="21" height="21" viewBox="0 0 21 21" fill="none" xmlns="http://www.w3.org/2000/svg">
<path d="M18.5625 0.25H1.6875C0.755156 0.25 0 1.00516 0 1.9375V18.8125C0 19.7448 0.755156 20.5 1.6875 20.5H10.9688V12.9063H8.4375V9.53125H10.9688V7.34847C10.9688 4.73284 12.566 3.30859 14.8998 3.30859C16.0178 3.30859 16.9779 3.39213 17.2581 3.42925V6.163L15.6398 6.16384C14.3708 6.16384 14.1252 6.76713 14.1252 7.65138V9.53125H17.8715L17.0277 12.9063H14.1252V20.5H18.5625C19.4948 20.5 20.25 19.7448 20.25 18.8125V1.9375C20.25 1.00516 19.4948 0.25 18.5625 0.25Z" fill="#EBE4D6"/>
</svg>
