<svg width="25" height="24" viewBox="0 0 25 24" fill="none" xmlns="http://www.w3.org/2000/svg">
<path d="M12.125 2.162C8.921 2.162 8.541 2.174 7.276 2.232C5.91 2.294 4.643 2.568 3.668 3.543C2.693 4.518 2.419 5.785 2.357 7.151C2.299 8.416 2.287 8.796 2.287 12C2.287 15.204 2.299 15.584 2.357 16.849C2.419 18.215 2.693 19.482 3.668 20.457C4.643 21.432 5.91 21.706 7.276 21.768C8.541 21.826 8.921 21.838 12.125 21.838C15.329 21.838 15.709 21.826 16.974 21.768C18.34 21.706 19.607 21.432 20.582 20.457C21.557 19.482 21.831 18.215 21.893 16.849C21.951 15.584 21.963 15.204 21.963 12C21.963 8.796 21.951 8.416 21.893 7.151C21.831 5.785 21.557 4.518 20.582 3.543C19.607 2.568 18.34 2.294 16.974 2.232C15.709 2.174 15.329 2.162 12.125 2.162ZM12.125 0C15.384 0 15.793 0.014 17.073 0.072C19.023 0.161 20.736 0.639 22.111 2.014C23.486 3.389 23.964 5.102 24.053 7.052C24.111 8.332 24.125 8.741 24.125 12C24.125 15.259 24.111 15.668 24.053 16.948C23.964 18.898 23.486 20.611 22.111 21.986C20.736 23.361 19.023 23.839 17.073 23.928C15.793 23.986 15.384 24 12.125 24C8.866 24 8.457 23.986 7.177 23.928C5.227 23.839 3.514 23.361 2.139 21.986C0.764 20.611 0.286 18.898 0.197 16.948C0.139 15.668 0.125 15.259 0.125 12C0.125 8.741 0.139 8.332 0.197 7.052C0.286 5.102 0.764 3.389 2.139 2.014C3.514 0.639 5.227 0.161 7.177 0.072C8.457 0.014 8.866 0 12.125 0ZM12.125 5.838C15.528 5.838 18.287 8.597 18.287 12C18.287 15.403 15.528 18.162 12.125 18.162C8.722 18.162 5.963 15.403 5.963 12C5.963 8.597 8.722 5.838 12.125 5.838ZM12.125 16C14.334 16 16.125 14.209 16.125 12C16.125 9.791 14.334 8 12.125 8C9.916 8 8.125 9.791 8.125 12C8.125 14.209 9.916 16 12.125 16ZM18.531 7.034C17.7357 7.034 17.091 6.38929 17.091 5.594C17.091 4.79871 17.7357 4.154 18.531 4.154C19.3263 4.154 19.971 4.79871 19.971 5.594C19.971 6.38929 19.3263 7.034 18.531 7.034Z" fill="#EBE4D6"/>
</svg>
