<svg width="22" height="18" viewBox="0 0 22 18" fill="none" xmlns="http://www.w3.org/2000/svg">
<path fill-rule="evenodd" clip-rule="evenodd" d="M21.375 2.37891C20.5734 2.77969 19.7719 2.91328 18.8367 3.04688C19.7719 2.5125 20.4398 1.71094 20.707 0.642188C19.9055 1.17656 18.9703 1.44375 17.9016 1.71094C17.1 0.909375 15.8977 0.375 14.6953 0.375C12.4242 0.375 10.4203 2.37891 10.4203 4.78359C10.4203 5.18438 10.4203 5.45156 10.5539 5.71875C6.94688 5.58516 3.60703 3.84844 1.46953 1.17656C1.06875 1.84453 0.935156 2.5125 0.935156 3.44766C0.935156 4.91719 1.73672 6.25313 2.93906 7.05469C2.27109 7.05469 1.60312 6.7875 0.935156 6.52031C0.935156 8.65781 2.40469 10.3945 4.40859 10.7953C4.00781 10.9289 3.60703 10.9289 3.20625 10.9289C2.93906 10.9289 2.67188 10.9289 2.40469 10.7953C2.93906 12.532 4.54219 13.868 6.54609 13.868C5.07656 15.0703 3.20625 15.7383 1.06875 15.7383C0.667969 15.7383 0.400781 15.7383 0 15.7383C2.00391 16.9406 4.275 17.7422 6.67969 17.7422C14.6953 17.7422 19.1039 11.0625 19.1039 5.31797C19.1039 5.18438 19.1039 4.91719 19.1039 4.78359C20.0391 4.11563 20.8406 3.31406 21.375 2.37891Z" fill="#EBE4D6"/>
</svg>
